<?xml version="1.0" standalone="no"?>
<!DOCTYPE svg PUBLIC "-//W3C//DTD SVG 20010904//EN"
 "http://www.w3.org/TR/2001/REC-SVG-20010904/DTD/svg10.dtd">
<svg version="1.0" xmlns="http://www.w3.org/2000/svg"
 width="700.000000pt" height="700.000000pt" viewBox="0 0 700.000000 700.000000"
 preserveAspectRatio="xMidYMid meet">
<metadata>
Created by potrace 1.11, written by Peter Selinger 2001-2013
</metadata>
<g transform="translate(0.000000,700.000000) scale(0.100000,-0.100000)"
fill="#000000" stroke="none">
<path d="M1467 6558 c-210 -20 -404 -147 -505 -329 -11 -20 -24 -45 -30 -55
-19 -37 -42 -120 -50 -179 -4 -33 -7 -1169 -6 -2525 1 -2462 1 -2465 22 -2542
40 -148 108 -251 232 -349 90 -73 206 -122 318 -135 73 -9 2291 -9 2357 0 229
30 445 200 526 415 41 110 45 161 44 691 -1 468 -1 476 -23 517 -28 53 -83 98
-138 112 -30 8 -475 11 -1472 11 l-1429 0 0 1530 -1 1530 1447 0 c1387 0 1448
1 1486 19 55 25 104 79 119 132 9 32 12 118 11 319 -2 247 -4 283 -24 353 -35
130 -94 226 -192 317 -96 90 -232 152 -362 166 -81 9 -2242 11 -2330 2z m2346
-457 c54 -26 102 -84 116 -140 5 -20 9 -89 9 -153 l0 -118 -74 -1 c-41 0 -346
0 -679 0 -333 0 -891 0 -1240 0 l-635 1 3 138 c3 116 7 143 25 179 26 50 76
90 132 107 30 9 324 12 1168 11 l1127 0 48 -24z m123 -4708 c-2 -345 -2 -359
-23 -399 -23 -42 -72 -86 -120 -106 -44 -18 -2261 -19 -2325 -1 -55 16 -112
67 -137 124 -16 36 -18 76 -19 382 0 188 2 345 5 350 2 4 593 7 1313 7 l1308
0 -2 -357z"/>
<path d="M2338 1520 c-183 -56 -198 -320 -23 -405 36 -18 64 -20 300 -21 291
-1 321 4 379 62 100 100 83 263 -36 341 l-41 28 -276 2 c-152 1 -288 -2 -303
-7z"/>
<path d="M4505 4792 c-22 -11 -52 -32 -67 -47 -16 -15 -224 -421 -480 -933
-423 -846 -453 -910 -455 -961 -3 -124 92 -224 213 -224 57 0 127 29 162 66
11 12 224 429 474 927 l453 905 0 71 c0 60 -4 77 -28 112 -41 63 -97 96 -171
99 -44 3 -72 -1 -101 -15z"/>
<path d="M3021 4588 c-24 -4 -59 -18 -77 -30 -18 -12 -189 -180 -381 -373
-294 -294 -351 -357 -361 -391 -16 -56 -15 -117 3 -162 19 -45 689 -721 752
-758 133 -80 313 16 322 172 6 100 1 107 -292 402 l-271 272 266 268 c146 147
271 278 278 290 6 13 14 45 17 71 16 149 -109 266 -256 239z"/>
<path d="M5248 4595 c-2 -2 -20 -5 -41 -8 -89 -12 -166 -98 -172 -194 -7 -99
4 -113 289 -401 144 -144 261 -267 261 -273 0 -5 -115 -126 -256 -267 -141
-141 -264 -272 -273 -290 -44 -86 -27 -181 44 -253 36 -35 58 -49 95 -57 57
-12 105 -7 148 14 45 23 734 711 758 758 11 21 21 59 21 85 3 98 1 100 -376
479 -193 194 -365 362 -381 372 -28 17 -110 42 -117 35z"/>
</g>
</svg>
